# MagicaVoxel @ Ephtracy

# group
g Cactus

# material
mtllib Cactus.mtl
usemtl palette

# normals
vn -1 0 0
vn 1 0 0
vn 0 0 1
vn 0 0 -1
vn 0 -1 0
vn 0 1 0

# texcoords
vt 0.900391 0.5
vt 0.904297 0.5

# verts
v -2 4 3
v -2 4 2
v -2 4 1
v -2 5 3
v -2 5 2
v -2 5 1
v -2 6 3
v -2 6 2
v -2 6 1
v 0 0 3
v 0 0 1
v 0 1 3
v 0 1 1
v 0 2 3
v 0 2 1
v 0 4 3
v 0 4 1
v 0 5 5
v 0 5 3
v 0 5 1
v 0 6 4
v 0 6 3
v 0 7 3
v 0 7 2
v 0 7 1
v 0 7 -1
v 0 8 5
v 0 8 4
v 0 8 1
v 0 8 -0
v 0 9 -0
v 0 9 -1
v 0 11 -0
v 0 11 -1
v 0 13 3
v 0 13 2
v 0 14 3
v 0 14 1
v 3 7 3
v 3 7 1
v 3 9 3
v 3 9 1
v 3 10 3
v 3 10 1
v -1 5 3
v -1 5 2
v -1 5 1
v -1 6 3
v -1 6 2
v -1 6 1
v 1 7 1
v 1 7 -1
v 1 8 1
v 1 8 -0
v 1 9 -0
v 1 9 -1
v 1 11 -0
v 1 11 -1
v 2 0 3
v 2 0 1
v 2 4 2
v 2 4 1
v 2 5 5
v 2 5 3
v 2 6 5
v 2 6 4
v 2 6 3
v 2 6 2
v 2 6 1
v 2 7 5
v 2 7 4
v 2 7 3
v 2 7 2
v 2 7 1
v 2 8 5
v 2 8 4
v 2 8 3
v 2 8 2
v 2 9 2
v 2 9 1
v 2 10 3
v 2 10 2
v 2 13 3
v 2 13 2
v 2 14 3
v 2 14 2
v 2 14 1
v 4 6 3
v 4 6 1
v 4 9 3
v 4 9 1
v 4 10 3
v 4 10 1
v 0 5 5
v 0 8 5
v 1 6 5
v 1 7 5
v 2 5 5
v 2 6 5
v 2 7 5
v 2 8 5
v -2 4 3
v -2 5 3
v -2 6 3
v -1 4 3
v -1 5 3
v -1 6 3
v 0 0 3
v 0 1 3
v 0 2 3
v 0 4 3
v 0 5 3
v 0 6 3
v 0 7 3
v 0 13 3
v 0 14 3
v 1 1 3
v 1 2 3
v 1 7 3
v 1 8 3
v 1 10 3
v 1 13 3
v 1 14 3
v 2 0 3
v 2 5 3
v 2 6 3
v 2 7 3
v 2 8 3
v 2 10 3
v 2 13 3
v 2 14 3
v 3 6 3
v 3 7 3
v 3 9 3
v 3 10 3
v 4 6 3
v 4 9 3
v 4 10 3
v 0 8 -0
v 0 9 -0
v 0 11 -0
v 1 8 -0
v 1 9 -0
v 1 11 -0
v 0 6 4
v 0 8 4
v 1 6 4
v 1 7 4
v 2 6 4
v 2 7 4
v 2 8 4
v -2 4 1
v -2 5 1
v -2 6 1
v -1 5 1
v -1 6 1
v 0 0 1
v 0 1 1
v 0 2 1
v 0 4 1
v 0 5 1
v 0 7 1
v 0 8 1
v 0 14 1
v 1 1 1
v 1 2 1
v 1 4 1
v 1 7 1
v 1 8 1
v 1 9 1
v 2 0 1
v 2 4 1
v 2 6 1
v 2 7 1
v 2 9 1
v 2 14 1
v 3 6 1
v 3 7 1
v 3 9 1
v 3 10 1
v 4 6 1
v 4 9 1
v 4 10 1
v 0 7 -1
v 0 9 -1
v 0 11 -1
v 1 7 -1
v 1 9 -1
v 1 11 -1
v 0 0 3
v 2 0 3
v 0 0 1
v 2 0 1
v -2 4 3
v -1 4 3
v 0 4 3
v -2 4 2
v -1 4 2
v -2 4 1
v 0 4 1
v 0 5 5
v 2 5 5
v 0 5 3
v 2 5 3
v 2 6 3
v 3 6 3
v 4 6 3
v 2 6 2
v 2 6 1
v 3 6 1
v 4 6 1
v 0 7 1
v 1 7 1
v 0 7 -1
v 1 7 -1
v -1 5 3
v 0 5 3
v -1 5 2
v -1 5 1
v 0 5 1
v 0 6 4
v 1 6 4
v 2 6 4
v -2 6 3
v -1 6 3
v 0 6 3
v 2 6 3
v -2 6 2
v -1 6 2
v -2 6 1
v -1 6 1
v 2 7 3
v 3 7 3
v 2 7 2
v 2 7 1
v 3 7 1
v 0 8 5
v 2 8 5
v 0 8 4
v 2 8 4
v 0 8 1
v 1 8 1
v 0 8 -0
v 1 8 -0
v 3 10 3
v 4 10 3
v 3 10 1
v 4 10 1
v 0 11 -0
v 1 11 -0
v 0 11 -1
v 1 11 -1
v 0 14 3
v 1 14 3
v 2 14 3
v 1 14 2
v 2 14 2
v 0 14 1
v 2 14 1

# faces
f 4/2/1 2/2/1 1/2/1
f 5/1/1 3/1/1 2/1/1
f 5/2/1 2/2/1 4/2/1
f 6/1/1 3/1/1 5/1/1
f 7/1/1 5/1/1 4/1/1
f 8/2/1 6/2/1 5/2/1
f 8/1/1 5/1/1 7/1/1
f 9/2/1 6/2/1 8/2/1
f 12/1/1 11/1/1 10/1/1
f 13/1/1 11/1/1 12/1/1
f 14/2/1 13/2/1 12/2/1
f 15/2/1 13/2/1 14/2/1
f 16/1/1 15/1/1 14/1/1
f 17/1/1 15/1/1 16/1/1
f 21/1/1 19/1/1 18/1/1
f 21/1/1 20/1/1 19/1/1
f 22/1/1 20/1/1 21/1/1
f 23/1/1 20/1/1 22/1/1
f 24/1/1 20/1/1 23/1/1
f 25/1/1 20/1/1 24/1/1
f 27/1/1 21/1/1 18/1/1
f 28/1/1 21/1/1 27/1/1
f 29/1/1 25/1/1 24/1/1
f 29/1/1 26/1/1 25/1/1
f 30/1/1 26/1/1 29/1/1
f 31/1/1 26/1/1 30/1/1
f 32/1/1 26/1/1 31/1/1
f 33/2/1 32/2/1 31/2/1
f 34/2/1 32/2/1 33/2/1
f 35/2/1 24/2/1 23/2/1
f 36/1/1 29/1/1 24/1/1
f 36/2/1 24/2/1 35/2/1
f 37/1/1 36/1/1 35/1/1
f 38/1/1 29/1/1 36/1/1
f 38/1/1 36/1/1 37/1/1
f 41/2/1 40/2/1 39/2/1
f 42/2/1 40/2/1 41/2/1
f 43/1/1 42/1/1 41/1/1
f 44/1/1 42/1/1 43/1/1
f 45/1/2 46/1/2 48/1/2
f 46/2/2 47/2/2 49/2/2
f 48/1/2 46/1/2 49/1/2
f 49/2/2 47/2/2 50/2/2
f 51/1/2 52/1/2 53/1/2
f 53/1/2 52/1/2 54/1/2
f 54/1/2 52/1/2 55/1/2
f 55/1/2 52/1/2 56/1/2
f 55/2/2 56/2/2 57/2/2
f 57/2/2 56/2/2 58/2/2
f 59/1/2 60/1/2 61/1/2
f 61/1/2 60/1/2 62/1/2
f 59/1/2 61/1/2 64/1/2
f 63/1/2 64/1/2 65/1/2
f 65/1/2 64/1/2 66/1/2
f 64/1/2 61/1/2 67/1/2
f 66/1/2 64/1/2 67/1/2
f 61/2/2 62/2/2 68/2/2
f 67/1/2 61/1/2 68/1/2
f 68/2/2 62/2/2 69/2/2
f 65/2/2 66/2/2 70/2/2
f 70/2/2 66/2/2 71/2/2
f 70/1/2 71/1/2 75/1/2
f 75/1/2 71/1/2 76/1/2
f 72/1/2 73/1/2 77/1/2
f 73/2/2 74/2/2 78/2/2
f 77/1/2 73/1/2 78/1/2
f 78/2/2 74/2/2 79/2/2
f 77/2/2 78/2/2 79/2/2
f 79/2/2 74/2/2 80/2/2
f 77/2/2 79/2/2 81/2/2
f 79/1/2 80/1/2 82/1/2
f 81/2/2 79/2/2 82/2/2
f 81/1/2 82/1/2 83/1/2
f 82/1/2 80/1/2 84/1/2
f 83/1/2 82/1/2 84/1/2
f 83/2/2 84/2/2 85/2/2
f 84/1/2 80/1/2 86/1/2
f 85/2/2 84/2/2 86/2/2
f 86/1/2 80/1/2 87/1/2
f 88/2/2 89/2/2 90/2/2
f 90/2/2 89/2/2 91/2/2
f 90/1/2 91/1/2 92/1/2
f 92/1/2 91/1/2 93/1/2
f 96/1/3 95/1/3 94/1/3
f 97/1/3 95/1/3 96/1/3
f 98/1/3 96/1/3 94/1/3
f 99/2/3 97/2/3 96/2/3
f 99/1/3 96/1/3 98/1/3
f 100/1/3 95/1/3 97/1/3
f 100/2/3 97/2/3 99/2/3
f 101/1/3 95/1/3 100/1/3
f 105/2/3 103/2/3 102/2/3
f 106/1/3 104/1/3 103/1/3
f 106/2/3 103/2/3 105/2/3
f 107/1/3 104/1/3 106/1/3
f 111/1/3 106/1/3 105/1/3
f 112/1/3 106/1/3 111/1/3
f 117/2/3 110/2/3 109/2/3
f 117/1/3 109/1/3 108/1/3
f 118/1/3 112/1/3 111/1/3
f 118/2/3 110/2/3 117/2/3
f 118/1/3 111/1/3 110/1/3
f 119/2/3 115/2/3 114/2/3
f 119/1/3 114/1/3 113/1/3
f 120/2/3 115/2/3 119/2/3
f 121/2/3 115/2/3 120/2/3
f 122/1/3 116/1/3 115/1/3
f 122/2/3 115/2/3 121/2/3
f 123/1/3 116/1/3 122/1/3
f 124/1/3 117/1/3 108/1/3
f 124/1/3 118/1/3 117/1/3
f 125/1/3 112/1/3 118/1/3
f 125/1/3 118/1/3 124/1/3
f 126/1/3 119/1/3 113/1/3
f 126/1/3 120/1/3 119/1/3
f 127/1/3 120/1/3 126/1/3
f 128/2/3 121/2/3 120/2/3
f 128/1/3 120/1/3 127/1/3
f 129/1/3 122/1/3 121/1/3
f 129/2/3 121/2/3 128/2/3
f 130/2/3 123/2/3 122/2/3
f 130/1/3 122/1/3 129/1/3
f 131/2/3 123/2/3 130/2/3
f 132/1/3 127/1/3 126/1/3
f 133/1/3 127/1/3 132/1/3
f 136/2/3 133/2/3 132/2/3
f 136/2/3 134/2/3 133/2/3
f 137/1/3 135/1/3 134/1/3
f 137/2/3 134/2/3 136/2/3
f 138/1/3 135/1/3 137/1/3
f 142/1/3 140/1/3 139/1/3
f 143/2/3 141/2/3 140/2/3
f 143/1/3 140/1/3 142/1/3
f 144/2/3 141/2/3 143/2/3
f 145/1/4 146/1/4 147/1/4
f 147/1/4 146/1/4 148/1/4
f 147/2/4 148/2/4 149/2/4
f 148/1/4 146/1/4 150/1/4
f 149/2/4 148/2/4 150/2/4
f 150/1/4 146/1/4 151/1/4
f 152/1/4 153/1/4 155/1/4
f 153/2/4 154/2/4 155/2/4
f 155/2/4 154/2/4 156/2/4
f 152/1/4 155/1/4 160/1/4
f 160/1/4 155/1/4 161/1/4
f 158/2/4 159/2/4 165/2/4
f 157/1/4 158/1/4 165/1/4
f 160/1/4 161/1/4 166/1/4
f 165/2/4 159/2/4 166/2/4
f 161/1/4 162/1/4 166/1/4
f 159/1/4 160/1/4 166/1/4
f 166/1/4 162/1/4 167/1/4
f 167/1/4 162/1/4 168/1/4
f 163/1/4 164/1/4 169/1/4
f 169/1/4 164/1/4 170/1/4
f 157/1/4 165/1/4 171/1/4
f 165/1/4 166/1/4 171/1/4
f 166/1/4 167/1/4 171/1/4
f 167/2/4 168/2/4 172/2/4
f 171/1/4 167/1/4 172/1/4
f 169/2/4 170/2/4 172/2/4
f 168/2/4 169/2/4 172/2/4
f 172/2/4 170/2/4 173/2/4
f 173/2/4 170/2/4 174/2/4
f 170/1/4 164/1/4 175/1/4
f 174/2/4 170/2/4 175/2/4
f 175/1/4 164/1/4 176/1/4
f 173/1/4 174/1/4 177/1/4
f 177/1/4 174/1/4 178/1/4
f 177/2/4 178/2/4 181/2/4
f 178/2/4 179/2/4 181/2/4
f 179/1/4 180/1/4 182/1/4
f 181/2/4 179/2/4 182/2/4
f 182/1/4 180/1/4 183/1/4
f 184/1/4 185/1/4 187/1/4
f 185/2/4 186/2/4 188/2/4
f 187/1/4 185/1/4 188/1/4
f 188/2/4 186/2/4 189/2/4
f 192/1/5 191/1/5 190/1/5
f 193/1/5 191/1/5 192/1/5
f 197/2/5 195/2/5 194/2/5
f 198/1/5 196/1/5 195/1/5
f 198/2/5 195/2/5 197/2/5
f 199/1/5 198/1/5 197/1/5
f 200/1/5 196/1/5 198/1/5
f 200/1/5 198/1/5 199/1/5
f 203/1/5 202/1/5 201/1/5
f 204/1/5 202/1/5 203/1/5
f 208/1/5 206/1/5 205/1/5
f 209/1/5 206/1/5 208/1/5
f 210/2/5 207/2/5 206/2/5
f 210/1/5 206/1/5 209/1/5
f 211/2/5 207/2/5 210/2/5
f 214/1/5 213/1/5 212/1/5
f 215/1/5 213/1/5 214/1/5
f 216/1/6 217/1/6 218/1/6
f 218/1/6 217/1/6 219/1/6
f 219/1/6 217/1/6 220/1/6
f 221/1/6 222/1/6 226/1/6
f 222/1/6 223/1/6 226/1/6
f 226/1/6 223/1/6 227/1/6
f 224/1/6 225/1/6 228/1/6
f 228/1/6 225/1/6 229/1/6
f 228/2/6 229/2/6 230/2/6
f 230/2/6 229/2/6 231/2/6
f 232/1/6 233/1/6 234/1/6
f 234/1/6 233/1/6 235/1/6
f 235/1/6 233/1/6 236/1/6
f 237/1/6 238/1/6 239/1/6
f 239/1/6 238/1/6 240/1/6
f 241/1/6 242/1/6 243/1/6
f 243/1/6 242/1/6 244/1/6
f 245/1/6 246/1/6 247/1/6
f 247/1/6 246/1/6 248/1/6
f 249/2/6 250/2/6 251/2/6
f 251/2/6 250/2/6 252/2/6
f 253/1/6 254/1/6 256/1/6
f 254/2/6 255/2/6 256/2/6
f 256/2/6 255/2/6 257/2/6
f 253/1/6 256/1/6 258/1/6
f 256/1/6 257/1/6 258/1/6
f 258/1/6 257/1/6 259/1/6
